<svg xmlns="http://www.w3.org/2000/svg" width="20.001" height="20.001" viewBox="0 0 20.001 20.001">
  <path id="Path_249" data-name="Path 249" d="M10,0A10,10,0,1,1,0,10,10,10,0,0,1,10,0ZM5.575,10.265A1.153,1.153,0,0,1,7.3,9.475a1.435,1.435,0,0,1,.182.134l0,0c.316.3.668.616,1.015.925l.3.269,3.556-3.73a1.239,1.239,0,0,1,.684-.431,1.15,1.15,0,0,1,1.083,1.908L9.7,13.2a1.157,1.157,0,0,1-1.612.059c-.257-.237-.537-.482-.818-.727-.49-.427-.988-.861-1.395-1.288a1.156,1.156,0,0,1-.3-.98Z" fill="#fff" fill-rule="evenodd"/>
</svg>
