<svg xmlns="http://www.w3.org/2000/svg" width="235" height="235" viewBox="0 0 235 235">
  <g id="Group_498" data-name="Group 498" transform="translate(-843 -305)">
    <circle id="Ellipse_89" data-name="Ellipse 89" cx="117.5" cy="117.5" r="117.5" transform="translate(843 305)" fill="#36d860" opacity="0.12"/>
    <g id="Sticker_7_" transform="translate(817.551 189.307)">
      <g id="Group_455" data-name="Group 455" transform="translate(70.45 160.693)">
        <path id="Path_552" data-name="Path 552" d="M212.976,233.433a12.224,12.224,0,0,0-2.378-18.062,12.224,12.224,0,0,0-6.972-16.831,12.224,12.224,0,0,0-11.093-14.453A12.218,12.218,0,0,0,178.083,173a12.225,12.225,0,0,0-16.831-6.972,12.224,12.224,0,0,0-18.062-2.378,12.224,12.224,0,0,0-18.062,2.378A12.224,12.224,0,0,0,108.3,173a12.224,12.224,0,0,0-14.453,11.093,12.218,12.218,0,0,0-11.089,14.45,12.225,12.225,0,0,0-6.972,16.831,12.224,12.224,0,0,0-2.378,18.062A12.224,12.224,0,0,0,75.783,251.5a12.224,12.224,0,0,0,6.972,16.831A12.224,12.224,0,0,0,93.848,282.78a12.218,12.218,0,0,0,14.45,11.089,12.224,12.224,0,0,0,16.831,6.972,12.224,12.224,0,0,0,18.062,2.378,12.224,12.224,0,0,0,18.062-2.378,12.224,12.224,0,0,0,16.831-6.972,12.224,12.224,0,0,0,14.453-11.093,12.218,12.218,0,0,0,11.089-14.45A12.224,12.224,0,0,0,210.6,251.5a12.225,12.225,0,0,0,2.379-18.062Z" transform="translate(-70.45 -160.693)" fill="#36d860"/>
      </g>
      <g id="_311121_1_" data-name="311121 (1)" transform="translate(115.257 1476.1)">
        <path id="Path_607" data-name="Path 607" d="M326.212-1279.832a1.065,1.065,0,0,0-.709.448,4.345,4.345,0,0,0-.114.855c-.366,5.072-1.157,8.566-2.428,10.715a9.592,9.592,0,0,1-2.675,2.881,10.1,10.1,0,0,0-2.877,3.064c-.069.137-.329.755-.585,1.372a52.2,52.2,0,0,1-3.823,7.861,11.644,11.644,0,0,1-3.581,3.965,2.829,2.829,0,0,1-1.669.348H307v12c0,6.6.009,12,.023,12s.284.05.6.11,1.148.22,1.829.343,1.8.334,2.469.462c7.976,1.482,7.262,1.363,8.767,1.486,2.218.178,4.7.334,7.162.444,1.688.073,6.393.073,7.546,0a13.24,13.24,0,0,0,4.619-.832,10.8,10.8,0,0,0,3.992-3.741l.192-.389.027-1.536a9.83,9.83,0,0,1,.087-1.7,5.824,5.824,0,0,1,1.395-1.674,7.576,7.576,0,0,0,1.646-1.962c.366-.745.311-1.171-.389-2.9a6.84,6.84,0,0,1-.64-2.122c0-.471.293-.951,1.235-2.017,1.047-1.189,1.335-1.687,1.262-2.2a5.327,5.327,0,0,0-.819-1.719c-.924-1.523-1.171-2.094-1.111-2.547a3.557,3.557,0,0,1,.832-1.468c1.02-1.349,1.152-1.614,1.1-2.223a8.5,8.5,0,0,0-1.87-3.791,9.176,9.176,0,0,0-1.473-1.422c-.773-.521-1.925-.727-5.076-.892-1.107-.059-6.1-.082-9.375-.041l-1.875.023-.11-.32a4.965,4.965,0,0,1,.242-2.844,30.6,30.6,0,0,1,2.058-4.669c.489-.983.979-1.985,1.079-2.232a13.6,13.6,0,0,0,.855-3.192,21.1,21.1,0,0,0,.023-3.48,7.942,7.942,0,0,0-1.889-4.473C330.062-1279.3,327.684-1280.216,326.212-1279.832Z" transform="translate(-292.965)" fill="#fff"/>
        <path id="Path_608" data-name="Path 608" d="M1.761-613.83a2.52,2.52,0,0,0-1.482,1.166c-.3.581-.284-.3-.284,12.229,0,9.974.009,11.4.069,11.657a2.361,2.361,0,0,0,1.692,1.724c.293.078,7.829.091,8.163.014a2.441,2.441,0,0,0,1.738-1.82c.064-.338.064-22.811,0-23.149a2.441,2.441,0,0,0-1.738-1.82C9.659-613.89,2.017-613.89,1.761-613.83Z" transform="translate(0 -635.586)" fill="#fff"/>
      </g>
    </g>
  </g>
</svg>
