<?xml version="1.0" encoding="utf-8"?>
<!-- Generator: Adobe Illustrator 26.4.1, SVG Export Plug-In . SVG Version: 6.00 Build 0)  -->
<svg version="1.1" id="Layer_1" xmlns="http://www.w3.org/2000/svg" xmlns:xlink="http://www.w3.org/1999/xlink" x="0px" y="0px"
	 viewBox="0 0 486.2 116.1" style="enable-background:new 0 0 486.2 116.1;" xml:space="preserve">
<style type="text/css">
	.st0{fill:#FFFFFF;}
	.st1{fill:url(#Rectangle_1_00000142861062719096306860000014684869880898410153_);}
</style>
<g id="Group_8" transform="translate(-304.191 -328.948)">
	<g id="Group_3" transform="translate(304.191 328.948)">
		<g id="Group_2" transform="translate(0 0)">
			<path id="Path_3" class="st0" d="M173,83.7h-24.3V28.8h23.9c5.1,0,9.2,1.2,12.2,3.7c3,2.4,4.7,6.1,4.5,10c0,2.9-1,5.7-2.9,7.9
				c-1.9,2.2-4.5,3.6-7.4,4v0.3c3.5,0.2,6.8,1.6,9.3,4.1c2.4,2.4,3.7,5.7,3.7,9.1c0.2,4.4-1.7,8.7-5.1,11.5
				C183.4,82.3,178.8,83.7,173,83.7z M160.1,37.4v14.3h8.3c3.1,0,5.4-0.6,7.1-1.9c1.7-1.3,2.6-3.3,2.5-5.4c0.1-2-0.7-3.9-2.2-5.1
				c-1.8-1.3-4-1.9-6.2-1.8H160.1z M160.1,75.1h9.9c3.3,0,5.9-0.7,7.6-2.1c1.8-1.5,2.7-3.7,2.6-6c0.1-2.3-0.9-4.5-2.7-5.9
				c-1.8-1.3-4.4-2-7.8-2h-9.6V75.1z M197.7,83.7V42.9h11.1v40.8H197.7z M207.5,36.8c-1.1,1.1-2.6,1.7-4.2,1.7
				c-1.6,0-3.1-0.6-4.2-1.7c-1.1-1.1-1.7-2.5-1.7-4.1c0-1.5,0.6-3,1.7-4.1c1.1-1.1,2.7-1.7,4.2-1.7c1.6,0,3.1,0.6,4.2,1.7
				c1.1,1.1,1.7,2.5,1.7,4.1C209.2,34.2,208.6,35.7,207.5,36.8L207.5,36.8z M219.2,33.5h11.1v9.4h7.5v8.4h-7.5v19.5
				c0,3.1,1.6,4.6,4.8,4.6c0.9,0,1.8-0.1,2.7-0.2v8.2c-1.7,0.3-3.5,0.5-5.3,0.5c-4.8,0-8.2-0.9-10.3-2.6c-2-1.7-3.1-4.6-3.1-8.6
				V51.3h-5.7v-8.4h5.7V33.5z M303,83.7h-10.2V46.7h-0.3l-14.9,36.5h-7.2l-14.9-36.5h-0.3v37.1h-10.2V28.8h13.3l15.6,38.9h0.3
				l15.6-38.9H303V83.7z M326,76.3c2.3,0.1,4.5-0.7,6.3-2.1c1.7-1.3,2.6-3.3,2.6-5.4v-3l-8.6,0.5c-1.7,0-3.4,0.6-4.8,1.6
				c-1.1,0.8-1.7,2.1-1.7,3.5c-0.1,1.4,0.6,2.8,1.7,3.6C322.8,75.9,324.4,76.4,326,76.3z M322.4,84.4c-3.6,0.1-7.1-1.1-9.8-3.5
				c-2.6-2.2-4-5.5-3.9-8.9c-0.1-3.4,1.4-6.7,4.1-8.7c2.7-2.1,6.7-3.3,11.8-3.6l10.3-0.6v-2.7c0.1-1.7-0.6-3.3-1.8-4.4
				c-1.4-1.1-3.2-1.7-5-1.6c-1.8-0.1-3.5,0.4-5,1.4c-1.2,0.9-2.1,2.2-2.3,3.7h-10.2c0.1-3.8,2-7.4,5.1-9.7c3.2-2.4,7.5-3.7,12.8-3.7
				c5.2,0,9.4,1.2,12.6,3.7c3.1,2.3,4.8,6,4.7,9.9v28h-10.7v-6.2h-0.2c-1.1,2.2-2.9,3.9-5.1,5C327.5,83.7,325,84.4,322.4,84.4
				L322.4,84.4z M352.9,83.7V42.9h10.7v7.3h0.2c0.5-2.3,1.8-4.4,3.6-5.9c1.7-1.4,3.9-2.1,6.1-2.1c1.1,0,2.1,0.1,3.2,0.4v9.8
				c-1.3-0.5-2.7-0.7-4-0.6c-2.4-0.1-4.7,0.7-6.4,2.4c-1.6,1.8-2.4,4.3-2.3,6.7v22.8H352.9z M392.8,59.3l13.8-16.4h12.6l-15.6,17.5
				L420,83.7h-12.8l-11.7-16.6l-2.9,3.1v13.5h-11.1V28.8h11.1v30.5H392.8z M439.6,50.3c-2.3-0.1-4.5,0.8-6,2.5
				c-1.6,1.7-2.6,4-2.7,6.3h17.3c0-2.4-0.9-4.6-2.5-6.4C444.1,51.1,441.9,50.2,439.6,50.3z M448.3,71.2h10.2c-0.6,3.9-2.7,7.4-6,9.7
				c-3.7,2.5-8.1,3.8-12.6,3.7c-6.3,0-11.2-1.9-14.7-5.6s-5.3-8.9-5.3-15.4c0-6.5,1.8-11.7,5.3-15.6s8.3-5.8,14.3-5.8
				c5.9,0,10.6,1.9,14.1,5.6s5.2,8.7,5.2,14.9v3.4h-28.1v0.7c-0.1,2.6,0.8,5.2,2.6,7.1c1.8,1.8,4.2,2.8,6.8,2.7
				c1.8,0,3.7-0.4,5.2-1.4C446.8,74.1,447.8,72.8,448.3,71.2z M467.5,33.5h11.1v9.4h7.5v8.4h-7.5v19.5c0,3.1,1.6,4.6,4.8,4.6
				c0.9,0,1.8-0.1,2.7-0.2v8.2c-1.7,0.3-3.5,0.5-5.3,0.5c-4.8,0-8.2-0.9-10.3-2.6c-2-1.7-3.1-4.6-3.1-8.6V51.3h-5.7v-8.4h5.7
				L467.5,33.5z"/>
			
				<linearGradient id="Rectangle_1_00000039823448727593872710000008051245890198920369_" gradientUnits="userSpaceOnUse" x1="-435.3108" y1="439.6996" x2="-434.3108" y2="439.6996" gradientTransform="matrix(118.997 0 0 -116.057 51800.6836 51088.25)">
				<stop  offset="0" style="stop-color:#7F57F1"/>
				<stop  offset="1" style="stop-color:#2C00AA"/>
			</linearGradient>
			<path id="Rectangle_1" style="fill:url(#Rectangle_1_00000039823448727593872710000008051245890198920369_);" d="M58,0H61
				c32,0,58,26,58,58l0,0c0,32-26,58-58,58H58c-32,0-58-26-58-58l0,0C0,26,26,0,58,0z"/>
			<g id="Group_1" transform="translate(23.762 22.862)">
				<path id="Path_1" class="st0" d="M59.4,37.5c-2.4-1.6-5.3-2.6-8.2-2.9V34c1.6-0.3,3.2-0.9,4.6-1.8c1.7-1,3.1-2.3,4.2-3.9
					c3.2-5.2,2-11.9-2.7-15.7c-2.8-1.9-6-2.9-9.3-3.1V3.2C48,1.4,46.6,0,44.8,0c0,0,0,0,0,0h-2.3c-1.8,0-3.2,1.4-3.2,3.2
					c0,0,0,0,0,0v6.2h-4.7V3.2c0-1.8-1.4-3.2-3.2-3.2c0,0,0,0,0,0h-2.3c-1.8,0-3.2,1.4-3.2,3.2c0,0,0,0,0,0v6.2h-7.3
					c-1.8,0-3.2,1.4-3.2,3.2v4.1c0,1.8,1.4,3.2,3.2,3.2c0,0,0,0,0,0v8.6l21.2-12.3l-1.7-2.9l15.1,1.6l-6,13.9l-1.7-2.9L18.7,41.2
					v7.4c-1.8,0-3.2,1.4-3.2,3.2v4.1c0,1.8,1.4,3.2,3.2,3.2h7.3v3.7c0,1.8,1.4,3.2,3.2,3.2h2.3c1.8,0,3.2-1.4,3.2-3.2v-3.7h4.7v3.7
					c0,1.8,1.4,3.2,3.2,3.2h2.3c1.8,0,3.2-1.4,3.2-3.2v-3.8c3.5-0.2,6.9-1.2,9.9-3c3.4-2.1,5-5.3,5-9.8C63,42,61.8,39.1,59.4,37.5z
					 M44.2,44.5c0.1,1.1-0.2,2.2-0.9,3.1c-0.7,0.7-1.8,1.1-2.8,1h-7.1v-11h7.1c1-0.1,2,0.3,2.8,1c0.7,0.9,1,2,0.9,3.1V44.5z"/>
				<path id="Path_2" class="st0" d="M18.7,28.3c0,0-15.4,7-18.2,18.7s6.9,18.9,19.8,17.5c0,0-11.6-0.7-13.6-8s12-15.3,12-15.3
					L18.7,28.3z"/>
			</g>
		</g>
	</g>
</g>
</svg>
