<svg xmlns="http://www.w3.org/2000/svg" width="40.846" height="47.675" viewBox="0 0 40.846 47.675">
  <path id="delete-icon_7_" data-name="delete-icon (7)" d="M4.334,14.433H36.756a3.262,3.262,0,0,1,.777.062,2.3,2.3,0,0,1,1.119.606,2.109,2.109,0,0,1,.637,1.3,2.972,2.972,0,0,1-.023.559L36.5,45.562h0v.159h0a2.742,2.742,0,0,1-.078.35h0v.023h0A2.288,2.288,0,0,1,34.3,47.675H6.722a2.4,2.4,0,0,1-.485-.074,2.4,2.4,0,0,1-.451-.186h0a2.4,2.4,0,0,1-1.2-1.9L1.871,16.977a2.987,2.987,0,0,1-.023-.645,2.086,2.086,0,0,1,.633-1.278,2.33,2.33,0,0,1,1.165-.614,3.472,3.472,0,0,1,.7-.05ZM2.19,3.418H14.412V2.33h0a.947.947,0,0,1,0-.1A2.33,2.33,0,0,1,15.1.672h0A2.33,2.33,0,0,1,16.731,0h7.64a2.33,2.33,0,0,1,2.214,2.33h0V3.418h12.58a1.825,1.825,0,0,1,1.674,1.721c0,.07,0,.124,0,.194v3.83a1.006,1.006,0,0,1-1.006,1.006H1A1.006,1.006,0,0,1,0,9.174V5.255H0a.606.606,0,0,1,0-.12H0A1.833,1.833,0,0,1,1.5,3.449a4.039,4.039,0,0,1,.687-.031ZM18.541,23.886a1.853,1.853,0,0,1,3.686,0v14.37a1.853,1.853,0,0,1-3.686,0Zm9.217-.078A1.779,1.779,0,0,1,29.7,22.232a1.736,1.736,0,0,1,1.752,1.732l-.777,14.37a1.775,1.775,0,0,1-1.942,1.577,1.736,1.736,0,0,1-1.752-1.732Zm-18.052.155a1.732,1.732,0,0,1,1.748-1.732,1.779,1.779,0,0,1,1.942,1.577l.777,14.37a1.736,1.736,0,0,1-1.752,1.732,1.775,1.775,0,0,1-1.942-1.577L9.7,23.964Z" transform="translate(0.008)" fill="#fff" fill-rule="evenodd"/>
</svg>
