<svg xmlns="http://www.w3.org/2000/svg" width="15.884" height="18.54" viewBox="0 0 15.884 18.54">
  <path id="delete-icon_7_" data-name="delete-icon (7)" d="M1.681,5.612H14.289a1.269,1.269,0,0,1,.3.024.9.9,0,0,1,.435.236.82.82,0,0,1,.248.5,1.156,1.156,0,0,1-.009.217L14.191,17.718h0v.062h0a1.066,1.066,0,0,1-.03.136h0v.009h0a.89.89,0,0,1-.826.615H2.609a.932.932,0,0,1-.189-.029.932.932,0,0,1-.175-.072h0A.933.933,0,0,1,1.78,17.7L.723,6.6a1.161,1.161,0,0,1-.009-.251.811.811,0,0,1,.246-.5.906.906,0,0,1,.453-.239,1.35,1.35,0,0,1,.27-.02ZM.847,1.329H5.6V.906h0a.369.369,0,0,1,0-.041.906.906,0,0,1,.266-.6h0A.906.906,0,0,1,6.5,0H9.472a.906.906,0,0,1,.861.906h0v.423h4.892A.71.71,0,0,1,15.876,2c0,.027,0,.048,0,.076V3.563a.391.391,0,0,1-.391.391H.385a.391.391,0,0,1-.391-.387V2.044h0A.236.236,0,0,1-.007,2h0a.713.713,0,0,1,.586-.655,1.571,1.571,0,0,1,.267-.012Zm6.359,7.96a.72.72,0,0,1,1.433,0v5.588a.72.72,0,0,1-1.433,0Zm3.584-.03a.692.692,0,0,1,.755-.613.675.675,0,0,1,.681.674l-.3,5.588a.69.69,0,0,1-.755.613.675.675,0,0,1-.681-.674Zm-7.02.06a.674.674,0,0,1,.68-.674.692.692,0,0,1,.755.613l.3,5.588a.675.675,0,0,1-.681.674.69.69,0,0,1-.755-.613l-.3-5.588Z" transform="translate(0.008)" fill="#ff3737" fill-rule="evenodd"/>
</svg>
