<svg id="export-14586" xmlns="http://www.w3.org/2000/svg" width="13.906" height="13.887" viewBox="0 0 13.906 13.887">
  <path id="Path_549" data-name="Path 549" d="M117.671,0,116.58,1.091l.6.6h-1.459A3.326,3.326,0,0,0,112.4,5.014V7.9h1.543V5.014a1.781,1.781,0,0,1,1.779-1.779h1.459l-.6.6,1.091,1.091,2.463-2.463Z" transform="translate(-106.228)" fill="#fff"/>
  <path id="Path_550" data-name="Path 550" d="M11.818,13.887H2.069A2.071,2.071,0,0,1,0,11.818V2.069A2.071,2.071,0,0,1,2.069,0H6.407V1.543H2.069a.526.526,0,0,0-.526.526v9.75a.526.526,0,0,0,.526.526h9.75a.526.526,0,0,0,.526-.526V5.888h1.543v5.93A2.071,2.071,0,0,1,11.818,13.887Z" fill="#fff"/>
  <rect id="Rectangle_315" data-name="Rectangle 315" width="6.818" height="1.543" transform="translate(3.535 9.363)" fill="#fff"/>
</svg>
