<svg id="Layer_1" data-name="Layer 1" xmlns="http://www.w3.org/2000/svg" viewBox="0 0 32 32"><defs><style>.cls-1{fill:#fff;}</style></defs><g id="Group_1" data-name="Group 1"><path id="Path_1" data-name="Path 1" class="cls-1" d="M29.52,18.18a8.89,8.89,0,0,0-4-1.4v-.3a6.18,6.18,0,0,0,2.23-.87,6.23,6.23,0,0,0,2-1.89,5.84,5.84,0,0,0-1.3-7.61A8.88,8.88,0,0,0,24,4.61V1.55A1.53,1.53,0,0,0,22.44,0H21.33a1.53,1.53,0,0,0-1.55,1.55h0v3H17.5v-3A1.53,1.53,0,0,0,16,0H14.83a1.53,1.53,0,0,0-1.55,1.55h0v3H9.74A1.53,1.53,0,0,0,8.19,6.11v2A1.53,1.53,0,0,0,9.74,9.65h0v4.17L20,7.85l-.82-1.4,7.32.77L23.61,14l-.83-1.4L9.79,20v3.58a1.53,1.53,0,0,0-1.55,1.56v2a1.53,1.53,0,0,0,1.55,1.55h3.54v1.8A1.53,1.53,0,0,0,14.88,32H16a1.53,1.53,0,0,0,1.55-1.55v-1.8h2.28v1.8A1.53,1.53,0,0,0,21.38,32h1.11A1.53,1.53,0,0,0,24,30.45V28.61a10.52,10.52,0,0,0,4.8-1.46,5.12,5.12,0,0,0,2.43-4.75C31.27,20.36,30.69,19,29.52,18.18Zm-7.37,3.4a2.11,2.11,0,0,1-.43,1.5,1.75,1.75,0,0,1-1.36.48H16.92V18.23h3.44a1.83,1.83,0,0,1,1.36.49,2.08,2.08,0,0,1,.43,1.5Z"/><path id="Path_2" data-name="Path 2" class="cls-1" d="M9.79,13.72S2.32,17.12,1,22.79s3.34,9.16,9.6,8.48c0,0-5.63-.34-6.6-3.88S9.79,20,9.79,20Z"/></g></svg>