<svg xmlns="http://www.w3.org/2000/svg" width="41.869" height="41.869" viewBox="0 0 41.869 41.869">
  <path id="Union_40" data-name="Union 40" d="M26.082,41.869A3.384,3.384,0,0,1,22.7,38.485v-12.4A3.384,3.384,0,0,1,26.082,22.7h12.4a3.384,3.384,0,0,1,3.384,3.384v12.4a3.384,3.384,0,0,1-3.384,3.384Zm-22.7,0A3.384,3.384,0,0,1,0,38.485v-12.4A3.384,3.384,0,0,1,3.384,22.7h12.4a3.384,3.384,0,0,1,3.384,3.384v12.4a3.384,3.384,0,0,1-3.384,3.384Zm22.7-22.7A3.384,3.384,0,0,1,22.7,15.787V3.384A3.384,3.384,0,0,1,26.082,0h12.4a3.384,3.384,0,0,1,3.384,3.384v12.4a3.384,3.384,0,0,1-3.384,3.384Zm-22.7,0A3.384,3.384,0,0,1,0,15.787V3.384A3.384,3.384,0,0,1,3.384,0h12.4a3.384,3.384,0,0,1,3.384,3.384v12.4a3.384,3.384,0,0,1-3.384,3.384Z" fill="#c7cad6"/>
</svg>
