<svg xmlns="http://www.w3.org/2000/svg" width="235" height="235" viewBox="0 0 235 235">
  <g id="Group_498" data-name="Group 498" transform="translate(-843 -305)">
    <circle id="Ellipse_89" data-name="Ellipse 89" cx="117.5" cy="117.5" r="117.5" transform="translate(843 305)" fill="#36d860" opacity="0.12"/>
    <g id="Sticker_7_" transform="translate(817.551 189.307)">
      <g id="Group_455" data-name="Group 455" transform="translate(70.45 160.693)">
        <path id="Path_552" data-name="Path 552" d="M212.976,233.433a12.224,12.224,0,0,0-2.378-18.062,12.224,12.224,0,0,0-6.972-16.831,12.224,12.224,0,0,0-11.093-14.453A12.218,12.218,0,0,0,178.083,173a12.225,12.225,0,0,0-16.831-6.972,12.224,12.224,0,0,0-18.062-2.378,12.224,12.224,0,0,0-18.062,2.378A12.224,12.224,0,0,0,108.3,173a12.224,12.224,0,0,0-14.453,11.093,12.218,12.218,0,0,0-11.089,14.45,12.225,12.225,0,0,0-6.972,16.831,12.224,12.224,0,0,0-2.378,18.062A12.224,12.224,0,0,0,75.783,251.5a12.224,12.224,0,0,0,6.972,16.831A12.224,12.224,0,0,0,93.848,282.78a12.218,12.218,0,0,0,14.45,11.089,12.224,12.224,0,0,0,16.831,6.972,12.224,12.224,0,0,0,18.062,2.378,12.224,12.224,0,0,0,18.062-2.378,12.224,12.224,0,0,0,16.831-6.972,12.224,12.224,0,0,0,14.453-11.093,12.218,12.218,0,0,0,11.089-14.45A12.224,12.224,0,0,0,210.6,251.5a12.225,12.225,0,0,0,2.379-18.062Z" transform="translate(-70.45 -160.693)" fill="#36d860"/>
      </g>
      <g id="Group_456" data-name="Group 456" transform="translate(115.629 212.138)">
        <path id="Path_553" data-name="Path 553" d="M215.37,354.639l-20.779-20.768,6.567-6.571,14.006,14,29.78-31.656,6.767,6.365Z" transform="translate(-194.591 -309.642)" fill="#fff"/>
      </g>
    </g>
  </g>
</svg>
