<svg xmlns="http://www.w3.org/2000/svg" xmlns:xlink="http://www.w3.org/1999/xlink" width="486.165" height="116.057" viewBox="0 0 486.165 116.057">
  <defs>
    <linearGradient id="linear-gradient" y1="0.5" x2="1" y2="0.5" gradientUnits="objectBoundingBox">
      <stop offset="0" stop-color="#7f57f1"/>
      <stop offset="1" stop-color="#2c00aa"/>
    </linearGradient>
  </defs>
  <g id="Group_8" data-name="Group 8" transform="translate(-304.191 -328.948)">
    <g id="Group_3" data-name="Group 3" transform="translate(304.191 328.948)">
      <g id="Group_2" data-name="Group 2" transform="translate(0 0)">
        <path id="Path_3" data-name="Path 3" d="M29.583-8.806H5.273V-63.7H29.165q7.723,0,12.25,3.69a12.226,12.226,0,0,1,4.527,10.005,11.624,11.624,0,0,1-2.948,7.875A11.73,11.73,0,0,1,35.632-38.1v.3a13.97,13.97,0,0,1,9.283,4.147,12.55,12.55,0,0,1,3.652,9.13,14.129,14.129,0,0,1-5.1,11.489Q38.371-8.806,29.583-8.806ZM16.763-55.143v14.266h8.255q4.6,0,7.114-1.921a6.429,6.429,0,0,0,2.511-5.421,6.24,6.24,0,0,0-2.207-5.117A9.6,9.6,0,0,0,26.2-55.143Zm0,37.777h9.891q4.984,0,7.59-2.073a7.205,7.205,0,0,0,2.606-5.992,6.879,6.879,0,0,0-2.682-5.859q-2.682-2.016-7.78-2.016H16.763Zm37.587,8.56V-49.588H65.458V-8.806Zm9.777-46.945A5.806,5.806,0,0,1,59.9-54.077a5.806,5.806,0,0,1-4.223-1.674,5.479,5.479,0,0,1-1.712-4.071,5.462,5.462,0,0,1,1.712-4.09A5.841,5.841,0,0,1,59.9-65.566a5.841,5.841,0,0,1,4.223,1.655,5.462,5.462,0,0,1,1.712,4.09A5.479,5.479,0,0,1,64.126-55.751Zm11.679-3.234H86.914v9.4h7.533v8.37H86.914V-21.7q0,4.6,4.793,4.6a16.663,16.663,0,0,0,2.7-.19V-9.11a24.13,24.13,0,0,1-5.288.457q-7.19,0-10.253-2.587T75.806-19.8V-41.219H70.061v-8.37h5.745ZM159.615-8.806H149.381V-45.86h-.3L134.164-9.338h-7.228L112.023-45.86h-.3V-8.806H101.485V-63.7H114.8l15.6,38.918h.3L146.3-63.7h13.315Zm23.054-7.38a9.425,9.425,0,0,0,6.258-2.149,6.773,6.773,0,0,0,2.568-5.421v-2.967l-8.6.533a8.7,8.7,0,0,0-4.812,1.56,4.238,4.238,0,0,0-1.693,3.5,4.335,4.335,0,0,0,1.712,3.614A7.238,7.238,0,0,0,182.669-16.186Zm-3.652,8.027a14.14,14.14,0,0,1-9.777-3.462,11.387,11.387,0,0,1-3.88-8.9,10.378,10.378,0,0,1,4.109-8.712q4.109-3.158,11.755-3.614l10.272-.609v-2.7a5.53,5.53,0,0,0-1.845-4.413,7.382,7.382,0,0,0-5-1.6,8.357,8.357,0,0,0-4.965,1.37,5.59,5.59,0,0,0-2.34,3.69H167.186a12.423,12.423,0,0,1,5.136-9.682q4.831-3.671,12.821-3.671,7.837,0,12.554,3.728a11.979,11.979,0,0,1,4.717,9.891V-8.806H191.686v-6.239h-.228a12,12,0,0,1-5.1,5.041A15.242,15.242,0,0,1,179.017-8.159Zm30.549-.647V-49.588h10.728v7.342h.228a11.244,11.244,0,0,1,3.576-5.935,9.358,9.358,0,0,1,6.125-2.054,11.067,11.067,0,0,1,3.158.418v9.777a10.647,10.647,0,0,0-4.033-.647,8.4,8.4,0,0,0-6.391,2.4,9.318,9.318,0,0,0-2.283,6.7V-8.806ZM249.435-33.23l13.848-16.359h12.592l-15.56,17.5L276.636-8.806H263.854L252.174-25.393l-2.891,3.12V-8.806H238.174V-63.7h11.109V-33.23Zm46.793-9.016a8.085,8.085,0,0,0-6.03,2.473,9.83,9.83,0,0,0-2.72,6.315h17.31a9.487,9.487,0,0,0-2.53-6.353A7.992,7.992,0,0,0,296.228-42.246Zm8.712,20.962h10.2a14.175,14.175,0,0,1-5.992,9.682,20.963,20.963,0,0,1-12.611,3.671q-9.4,0-14.742-5.63t-5.345-15.446q0-9.777,5.326-15.617t14.342-5.84q8.864,0,14.114,5.554t5.25,14.875v3.386H287.364v.685a9.914,9.914,0,0,0,2.568,7.1,8.9,8.9,0,0,0,6.791,2.72,9.652,9.652,0,0,0,5.25-1.389A6.8,6.8,0,0,0,304.94-21.284Zm19.212-37.7h11.109v9.4h7.533v8.37h-7.533V-21.7q0,4.6,4.793,4.6a16.663,16.663,0,0,0,2.7-.19V-9.11a24.13,24.13,0,0,1-5.288.457q-7.19,0-10.253-2.587t-3.062-8.56V-41.219h-5.745v-8.37h5.745Z" transform="translate(143.372 92.515)" fill="#1b0361"/>
        <rect id="Rectangle_1" data-name="Rectangle 1" width="118.997" height="116.057" rx="58.029" transform="translate(0)" fill="url(#linear-gradient)"/>
        <g id="Group_1" data-name="Group 1" transform="translate(23.762 22.862)">
          <path id="Path_1" data-name="Path 1" d="M478.055,375.632a17.583,17.583,0,0,0-8.176-2.87v-.637a16.5,16.5,0,0,0,4.629-1.757,12.23,12.23,0,0,0,4.185-3.9,12.033,12.033,0,0,0-2.679-15.674,18.527,18.527,0,0,0-9.305-3.1v-6.344a3.19,3.19,0,0,0-3.2-3.189h-2.26a3.188,3.188,0,0,0-3.189,3.189v6.192h-4.652v-6.192a3.19,3.19,0,0,0-3.2-3.189h-2.26a3.186,3.186,0,0,0-3.187,3.189v6.192h-7.323a3.2,3.2,0,0,0-3.189,3.2v4.084a3.188,3.188,0,0,0,3.189,3.189v8.551l21.164-12.344-1.681-2.886,15.089,1.64-6,13.943-1.69-2.9-26.881,15.3v7.432a3.2,3.2,0,0,0-3.189,3.189v4.091a3.193,3.193,0,0,0,3.189,3.189h7.323V400.9a3.192,3.192,0,0,0,3.187,3.187h2.26a3.2,3.2,0,0,0,3.2-3.187v-3.683h4.652V400.9a3.193,3.193,0,0,0,3.189,3.187h2.26a3.2,3.2,0,0,0,3.2-3.187v-3.826a22.353,22.353,0,0,0,9.941-2.953q5.047-3.1,5.047-9.8C481.7,380.143,480.483,377.256,478.055,375.632Zm-15.13,7.029a4.414,4.414,0,0,1-.929,3.1,3.615,3.615,0,0,1-2.779.988h-7.142V375.758h7.142a3.624,3.624,0,0,1,2.779,1,4.4,4.4,0,0,1,.929,3.1Z" transform="translate(-418.698 -338.157)" fill="#fff"/>
          <path id="Path_2" data-name="Path 2" d="M444.311,353.954s-15.373,7-18.243,18.722,6.935,18.89,19.846,17.454c0,0-11.6-.716-13.629-8.009s12.027-15.295,12.027-15.295Z" transform="translate(-425.566 -325.669)" fill="#fff"/>
        </g>
      </g>
    </g>
  </g>
</svg>
