<svg xmlns="http://www.w3.org/2000/svg" width="13.887" height="13.887" viewBox="0 0 13.887 13.887">
  <g id="Group_338" data-name="Group 338" transform="translate(-1705.557 -148.057)">
    <path id="Line_37" data-name="Line 37" d="M0,12.387a1.5,1.5,0,0,1-1.5-1.5V0A1.5,1.5,0,0,1,0-1.5,1.5,1.5,0,0,1,1.5,0V10.887A1.5,1.5,0,0,1,0,12.387Z" transform="translate(1712.5 149.557)" fill="#fff"/>
    <path id="Line_38" data-name="Line 38" d="M0,12.387a1.5,1.5,0,0,1-1.5-1.5V0A1.5,1.5,0,0,1,0-1.5,1.5,1.5,0,0,1,1.5,0V10.887A1.5,1.5,0,0,1,0,12.387Z" transform="translate(1717.943 155) rotate(90)" fill="#fff"/>
  </g>
</svg>
