<svg xmlns="http://www.w3.org/2000/svg" width="24" height="24" viewBox="0 0 24 24">
  <path id="Path_324" data-name="Path 324" d="M82.29,0a12,12,0,1,1-12,12,12,12,0,0,1,12-12Zm2.347,7.648a1.365,1.365,0,0,1,1.949,0,1.4,1.4,0,0,1,0,1.968L84.234,12l2.356,2.394a1.394,1.394,0,0,1-.014,1.958,1.364,1.364,0,0,1-1.944,0L82.29,13.972l-2.347,2.38a1.365,1.365,0,0,1-1.949,0,1.4,1.4,0,0,1,0-1.968L80.346,12,77.985,9.606A1.394,1.394,0,0,1,78,7.648a1.364,1.364,0,0,1,1.944,0l2.342,2.375,2.352-2.38Z" transform="translate(-70.29)" fill="#ff4141" fill-rule="evenodd"/>
</svg>
