<svg xmlns="http://www.w3.org/2000/svg" width="235" height="235" viewBox="0 0 235 235">
  <g id="Group_500" data-name="Group 500" transform="translate(-843 -305)">
    <circle id="Ellipse_89" data-name="Ellipse 89" cx="117.5" cy="117.5" r="117.5" transform="translate(843 305)" fill="#f02e2e" opacity="0.12"/>
    <g id="Sticker_7_" transform="translate(817.551 189.307)">
      <g id="Group_455" data-name="Group 455" transform="translate(70.45 160.693)">
        <path id="Path_552" data-name="Path 552" d="M212.976,233.433a12.224,12.224,0,0,0-2.378-18.062,12.224,12.224,0,0,0-6.972-16.831,12.224,12.224,0,0,0-11.093-14.453A12.218,12.218,0,0,0,178.083,173a12.225,12.225,0,0,0-16.831-6.972,12.224,12.224,0,0,0-18.062-2.378,12.224,12.224,0,0,0-18.062,2.378A12.224,12.224,0,0,0,108.3,173a12.224,12.224,0,0,0-14.453,11.093,12.218,12.218,0,0,0-11.089,14.45,12.225,12.225,0,0,0-6.972,16.831,12.224,12.224,0,0,0-2.378,18.062A12.224,12.224,0,0,0,75.783,251.5a12.224,12.224,0,0,0,6.972,16.831A12.224,12.224,0,0,0,93.848,282.78a12.218,12.218,0,0,0,14.45,11.089,12.224,12.224,0,0,0,16.831,6.972,12.224,12.224,0,0,0,18.062,2.378,12.224,12.224,0,0,0,18.062-2.378,12.224,12.224,0,0,0,16.831-6.972,12.224,12.224,0,0,0,14.453-11.093,12.218,12.218,0,0,0,11.089-14.45A12.224,12.224,0,0,0,210.6,251.5a12.225,12.225,0,0,0,2.379-18.062Z" transform="translate(-70.45 -160.693)" fill="#f02e2e"/>
      </g>
      <g id="reject" transform="translate(23.66 38.633)">
        <path id="Path_609" data-name="Path 609" d="M92.83,180.69h12.483v33.034H93.453c-.207,0-.416.017-.623.026Z" transform="translate(0 -7.005)" fill="#fff"/>
        <path id="Path_610" data-name="Path 610" d="M246.226,181.236a5.33,5.33,0,0,1,.984,7.361,5.47,5.47,0,0,1,2.112,3.5,5.358,5.358,0,0,1-.976,3.97c.183.167.364.323.536.49a5.269,5.269,0,0,1,1.284,5.747,5.369,5.369,0,0,1-5.048,3.384c-3.753.016-7.507,0-11.261.005h-.671c.489,1.7,1.083,3.3,1.405,4.962.705,3.636.4,7.106-2.3,9.973a9.052,9.052,0,0,1-6.642,2.9,2.26,2.26,0,0,1-2.322-2.408c-.016-1.842.008-3.684-.016-5.526a1.437,1.437,0,0,0-.274-.849c-1.744-2.073-3.5-4.142-5.286-6.174-1.528-1.733-3.12-3.41-4.662-5.131a1.262,1.262,0,0,1-.3-.77q-.023-13.215-.021-26.431a.59.59,0,0,1,.452-.675,45.119,45.119,0,0,1,7.408-2.418,30.047,30.047,0,0,1,4.654-.468c5.456-.056,10.913-.03,16.369-.018a5.248,5.248,0,0,1,5.4,5.835A14.369,14.369,0,0,1,246.226,181.236Z" transform="translate(-104.304)" fill="#fff"/>
      </g>
    </g>
  </g>
</svg>
