<svg xmlns="http://www.w3.org/2000/svg" width="22.405" height="22.405" viewBox="0 0 22.405 22.405">
  <g id="Group_24" data-name="Group 24" transform="matrix(0.629, -0.777, 0.777, 0.629, -679.102, 796.18)">
    <path id="Path_6" data-name="Path 6" d="M7.465,1.866a5.6,5.6,0,1,0,5.6,5.6,5.605,5.605,0,0,0-5.6-5.6M7.465,0A7.465,7.465,0,1,1,0,7.465,7.465,7.465,0,0,1,7.465,0Z" transform="translate(1037 35)" fill="#7f57f1" stroke="#7f57f1" stroke-width="1"/>
    <path id="Path_5" data-name="Path 5" d="M-.317,4.349a.933.933,0,0,1-.933-.933V-.317A.933.933,0,0,1-.317-1.25a.933.933,0,0,1,.933.933V3.416A.933.933,0,0,1-.317,4.349Z" transform="translate(1044.782 49.874)" fill="#7f57f1" stroke="#7f57f1" stroke-linecap="round" stroke-width="1"/>
  </g>
</svg>
