<svg xmlns="http://www.w3.org/2000/svg" width="23.38" height="23.38" viewBox="0 0 23.38 23.38">
  <path id="Path_245" data-name="Path 245" d="M11.69,0A11.69,11.69,0,1,1,0,11.69,11.689,11.689,0,0,1,11.69,0ZM6.517,12a1.347,1.347,0,0,1,2.014-.924,1.677,1.677,0,0,1,.212.157l0,0c.369.351.781.721,1.187,1.081l.351.314,4.157-4.36a1.448,1.448,0,0,1,.8-.5A1.345,1.345,0,0,1,16.507,10l-5.173,5.432A1.352,1.352,0,0,1,9.45,15.5c-.3-.277-.628-.563-.956-.85-.573-.5-1.155-1.007-1.63-1.506A1.351,1.351,0,0,1,6.517,12Z" fill="#30cc70" fill-rule="evenodd"/>
</svg>
