<svg xmlns="http://www.w3.org/2000/svg" width="41" height="41" viewBox="0 0 41 41">
  <g id="vuesax_bulk_shop" data-name="vuesax/bulk/shop" transform="translate(-172 -252)">
    <g id="shop" transform="translate(172 252)">
      <path id="Vector" d="M32.014.478V10.711a8.545,8.545,0,0,1-8.542,8.542H8.542A8.545,8.545,0,0,1,0,10.711V.6A6.965,6.965,0,0,0,5.142,2.8,6.992,6.992,0,0,0,10.66,0a6.413,6.413,0,0,0,5.347,2.8A6.379,6.379,0,0,0,21.32.068,7,7,0,0,0,26.787,2.8,6.817,6.817,0,0,0,32.014.478Z" transform="translate(4.493 18.98)" fill="#7f57f1" opacity="0.4"/>
      <path id="Vector-2" data-name="Vector" d="M11.543,0H1.293L.029,12.573a6.643,6.643,0,0,0,.5,3.246,6.383,6.383,0,0,0,5.911,3.827,6.365,6.365,0,0,0,5.928-3.81,6.8,6.8,0,0,0,.512-2.46v-.325Z" transform="translate(14.065 2.135)" fill="#7f57f1"/>
      <path id="Vector-3" data-name="Vector" d="M15.119,11.993l-.5-4.732C13.906,2.1,11.565,0,6.56,0H0L1.264,12.813A6.135,6.135,0,0,1,1.3,13.5a6.522,6.522,0,0,0,.786,2.443A7.083,7.083,0,0,0,8.2,19.646a6.8,6.8,0,0,0,5.6-2.785A6.957,6.957,0,0,0,15.119,11.993Z" transform="translate(23.08 2.135)" fill="#7f57f1" opacity="0.6"/>
      <path id="Vector-4" data-name="Vector" d="M8.575,0C3.552,0,1.229,2.1.494,7.312l-.461,4.7A7.022,7.022,0,0,0,1.434,17a6.85,6.85,0,0,0,5.518,2.648,7.071,7.071,0,0,0,6.1-3.673,6.359,6.359,0,0,0,.82-2.58L15.2.017H8.575Z" transform="translate(2.683 2.135)" fill="#7f57f1" opacity="0.6"/>
      <path id="Vector-5" data-name="Vector" d="M3.81.06A4.262,4.262,0,0,0,0,4.314V9.832H9.823V4.912C9.84,1.341,7.739-.35,3.81.06Z" transform="translate(15.58 28.401)" fill="#7f57f1"/>
      <path id="Vector-6" data-name="Vector" d="M0,0H41V41H0Z" fill="none" opacity="0"/>
    </g>
  </g>
</svg>
