<svg xmlns="http://www.w3.org/2000/svg" width="24" height="24" viewBox="0 0 24 24">
  <path id="Path_323" data-name="Path 323" d="M12,0A12,12,0,1,1,0,12,12,12,0,0,1,12,0ZM6.69,12.318a1.383,1.383,0,0,1,2.067-.948,1.722,1.722,0,0,1,.218.161l0,0c.379.36.8.74,1.218,1.109l.36.322,4.267-4.476a1.486,1.486,0,0,1,.82-.517,1.38,1.38,0,0,1,1.3,2.29l-5.31,5.576a1.388,1.388,0,0,1-1.934.071c-.308-.284-.645-.578-.981-.872-.588-.512-1.185-1.034-1.674-1.546a1.387,1.387,0,0,1-.356-1.176Z" fill="#30cc70" fill-rule="evenodd"/>
</svg>
