<svg xmlns="http://www.w3.org/2000/svg" width="192.854" height="40" viewBox="0 0 192.854 40">
  <g id="Group_119" data-name="Group 119" transform="translate(-27 -39)">
    <path id="Path_10" data-name="Path 10" d="M8.654,3.891A20.115,20.115,0,0,0,4.807,7.406C9.4,6.98,15.227,7.676,22,11.06c7.229,3.614,13.049,3.736,17.1,2.955a19.888,19.888,0,0,0-1.378-3.2c-4.637.489-10.582-.158-17.511-3.622A29.754,29.754,0,0,0,8.654,3.891ZM35.009,6.96A20.034,20.034,0,0,0,15.065.933,37.679,37.679,0,0,1,22,3.616,28.821,28.821,0,0,0,35.009,6.96Zm4.953,10.961c-4.894.966-11.652.768-19.755-3.284C12.631,10.85,6.6,10.9,2.535,11.8q-.315.07-.615.147a19.851,19.851,0,0,0-1.262,3.64q.489-.131,1.009-.247C6.6,14.245,13.571,14.292,22,18.5c7.576,3.788,13.605,3.74,17.672,2.836q.209-.046.412-.1.022-.473.022-.952A20.211,20.211,0,0,0,39.962,17.922Zm-.536,7.544c-4.847.847-11.408.522-19.219-3.384C12.631,18.295,6.6,18.342,2.535,19.246a19.943,19.943,0,0,0-2.431.7q0,.172,0,.345a20,20,0,0,0,39.325,5.172Z" transform="translate(26.899 38.706)" fill="#7f57f1" fill-rule="evenodd"/>
    <path id="Path_551" data-name="Path 551" d="M11.16-8.592a3.765,3.765,0,0,1,2.328,1.416,4.136,4.136,0,0,1,.912,2.64,4.254,4.254,0,0,1-.66,2.364,4.4,4.4,0,0,1-1.908,1.6A6.99,6.99,0,0,1,8.88,0H1.656V-16.752H8.568a7.168,7.168,0,0,1,2.94.552,4.186,4.186,0,0,1,1.872,1.536,4.022,4.022,0,0,1,.636,2.232,3.818,3.818,0,0,1-.78,2.448A4.173,4.173,0,0,1,11.16-8.592ZM5.016-9.84H8.088a2.812,2.812,0,0,0,1.848-.54,1.9,1.9,0,0,0,.648-1.548,1.937,1.937,0,0,0-.648-1.56,2.77,2.77,0,0,0-1.848-.552H5.016ZM8.4-2.736a2.875,2.875,0,0,0,1.908-.576,2.015,2.015,0,0,0,.684-1.632,2.1,2.1,0,0,0-.72-1.692,2.9,2.9,0,0,0-1.944-.612H5.016v4.512ZM20.448-17.76V0h-3.36V-17.76ZM29.664.216a7,7,0,0,1-3.456-.852A6.135,6.135,0,0,1,23.8-3.048a7.227,7.227,0,0,1-.876-3.6,7.074,7.074,0,0,1,.9-3.6,6.254,6.254,0,0,1,2.46-2.412,7.14,7.14,0,0,1,3.48-.852,7.14,7.14,0,0,1,3.48.852,6.254,6.254,0,0,1,2.46,2.412,7.074,7.074,0,0,1,.9,3.6,6.93,6.93,0,0,1-.924,3.6,6.4,6.4,0,0,1-2.5,2.412A7.258,7.258,0,0,1,29.664.216Zm0-2.928a3.5,3.5,0,0,0,1.716-.444,3.227,3.227,0,0,0,1.284-1.332,4.489,4.489,0,0,0,.48-2.16,4,4,0,0,0-1-2.916,3.274,3.274,0,0,0-2.436-1.02A3.2,3.2,0,0,0,27.3-9.564a4.063,4.063,0,0,0-.972,2.916,4.127,4.127,0,0,0,.948,2.916A3.121,3.121,0,0,0,29.664-2.712Zm8.544-3.936a7.458,7.458,0,0,1,.84-3.612,6,6,0,0,1,2.328-2.4,6.736,6.736,0,0,1,3.408-.852,6.552,6.552,0,0,1,4.092,1.236,6.012,6.012,0,0,1,2.172,3.468H47.424a2.65,2.65,0,0,0-.972-1.356,2.822,2.822,0,0,0-1.692-.492,2.771,2.771,0,0,0-2.28,1.044,4.621,4.621,0,0,0-.84,2.964,4.578,4.578,0,0,0,.84,2.94,2.771,2.771,0,0,0,2.28,1.044,2.548,2.548,0,0,0,2.664-1.824h3.624a6.133,6.133,0,0,1-2.184,3.432A6.436,6.436,0,0,1,44.784.216a6.736,6.736,0,0,1-3.408-.852,6,6,0,0,1-2.328-2.4A7.458,7.458,0,0,1,38.208-6.648ZM61.392,0,56.88-5.664V0H53.52V-17.76h3.36v10.1l4.464-5.64h4.368L59.856-6.624,65.76,0Zm5.28-6.648a7.458,7.458,0,0,1,.84-3.612,6,6,0,0,1,2.328-2.4,6.736,6.736,0,0,1,3.408-.852,6.552,6.552,0,0,1,4.092,1.236,6.012,6.012,0,0,1,2.172,3.468H75.888a2.65,2.65,0,0,0-.972-1.356,2.822,2.822,0,0,0-1.692-.492,2.771,2.771,0,0,0-2.28,1.044,4.621,4.621,0,0,0-.84,2.964,4.578,4.578,0,0,0,.84,2.94,2.771,2.771,0,0,0,2.28,1.044,2.548,2.548,0,0,0,2.664-1.824h3.624a6.133,6.133,0,0,1-2.184,3.432A6.436,6.436,0,0,1,73.248.216,6.736,6.736,0,0,1,69.84-.636a6,6,0,0,1-2.328-2.4A7.458,7.458,0,0,1,66.672-6.648Zm22.8-6.84a5.4,5.4,0,0,1,2.688.66A4.548,4.548,0,0,1,94-10.884a6.674,6.674,0,0,1,.66,3.084V0H91.3V-7.344A3.448,3.448,0,0,0,90.5-9.78a2.805,2.805,0,0,0-2.16-.852,2.874,2.874,0,0,0-2.2.852,3.415,3.415,0,0,0-.8,2.436V0h-3.36V-17.76h3.36v6.12A4.38,4.38,0,0,1,87.072-13,5.722,5.722,0,0,1,89.472-13.488ZM96.984-6.7a7.7,7.7,0,0,1,.8-3.576,5.893,5.893,0,0,1,2.184-2.4,5.814,5.814,0,0,1,3.084-.84,5.417,5.417,0,0,1,2.6.6,5.284,5.284,0,0,1,1.788,1.512v-1.9h3.384V0h-3.384V-1.944A5,5,0,0,1,105.66-.4a5.471,5.471,0,0,1-2.628.612,5.65,5.65,0,0,1-3.06-.864,6.047,6.047,0,0,1-2.184-2.436A7.823,7.823,0,0,1,96.984-6.7Zm10.464.048a4.31,4.31,0,0,0-.48-2.1,3.384,3.384,0,0,0-1.3-1.344,3.464,3.464,0,0,0-1.752-.468,3.4,3.4,0,0,0-1.728.456,3.434,3.434,0,0,0-1.284,1.332,4.172,4.172,0,0,0-.492,2.076,4.31,4.31,0,0,0,.492,2.1,3.542,3.542,0,0,0,1.3,1.38,3.292,3.292,0,0,0,1.716.48,3.464,3.464,0,0,0,1.752-.468,3.384,3.384,0,0,0,1.3-1.344A4.31,4.31,0,0,0,107.448-6.648Zm8.376-8.232a2.047,2.047,0,0,1-1.476-.564,1.866,1.866,0,0,1-.588-1.4,1.866,1.866,0,0,1,.588-1.4,2.047,2.047,0,0,1,1.476-.564,2.047,2.047,0,0,1,1.476.564,1.866,1.866,0,0,1,.588,1.4,1.866,1.866,0,0,1-.588,1.4A2.047,2.047,0,0,1,115.824-14.88ZM117.48-13.3V0h-3.36V-13.3Zm10.68-.192a5.125,5.125,0,0,1,3.84,1.5A5.743,5.743,0,0,1,133.464-7.8V0H130.1V-7.344a3.448,3.448,0,0,0-.792-2.436,2.805,2.805,0,0,0-2.16-.852,2.874,2.874,0,0,0-2.2.852,3.415,3.415,0,0,0-.8,2.436V0h-3.36V-13.3h3.36v1.656A4.642,4.642,0,0,1,125.868-13,5.308,5.308,0,0,1,128.16-13.488Z" transform="translate(86.39 67)" fill="#fff"/>
  </g>
</svg>
