<svg xmlns="http://www.w3.org/2000/svg" width="14.288" height="16.677" viewBox="0 0 14.288 16.677">
  <path id="delete-icon_7_" data-name="delete-icon (7)" d="M1.511,5.049H12.853a1.141,1.141,0,0,1,.272.022.806.806,0,0,1,.391.212.738.738,0,0,1,.223.454,1.039,1.039,0,0,1-.008.2l-.966,10.006h0v.056h0a.959.959,0,0,1-.027.122h0v.008h0a.8.8,0,0,1-.743.553H2.346a.838.838,0,0,1-.17-.026.838.838,0,0,1-.158-.065h0a.84.84,0,0,1-.418-.663L.65,5.939a1.045,1.045,0,0,1-.008-.226.73.73,0,0,1,.221-.447.815.815,0,0,1,.408-.215,1.215,1.215,0,0,1,.243-.018ZM.761,1.2H5.037V.815h0a.332.332,0,0,1,0-.037A.815.815,0,0,1,5.276.235h0A.815.815,0,0,1,5.848,0H8.52a.815.815,0,0,1,.774.815h0V1.2h4.4a.639.639,0,0,1,.586.6c0,.024,0,.043,0,.068v1.34a.352.352,0,0,1-.352.352H.345a.352.352,0,0,1-.352-.348V1.838h0a.212.212,0,0,1,0-.042h0a.641.641,0,0,1,.527-.59A1.413,1.413,0,0,1,.761,1.2Zm5.72,7.16a.648.648,0,0,1,1.289,0v5.027a.648.648,0,0,1-1.289,0ZM9.7,8.328a.622.622,0,0,1,.679-.552A.607.607,0,0,1,11,8.383l-.272,5.027a.621.621,0,0,1-.679.552.607.607,0,0,1-.613-.606ZM3.39,8.383A.606.606,0,0,1,4,7.777a.622.622,0,0,1,.679.552l.272,5.027a.607.607,0,0,1-.613.606.621.621,0,0,1-.679-.552L3.389,8.383Z" transform="translate(0.008)" fill="#2c00aa" fill-rule="evenodd"/>
</svg>
