<svg xmlns="http://www.w3.org/2000/svg" width="17.135" height="20" viewBox="0 0 17.135 20">
  <path id="delete-icon_7_" data-name="delete-icon (7)" d="M1.813,6.055h13.6a1.369,1.369,0,0,1,.326.026.966.966,0,0,1,.469.254.885.885,0,0,1,.267.544,1.247,1.247,0,0,1-.01.235l-1.158,12h0v.067h0a1.15,1.15,0,0,1-.033.147h0v.01h0a.96.96,0,0,1-.891.663H2.816a1,1,0,0,1-.2-.031,1,1,0,0,1-.189-.078h0a1.007,1.007,0,0,1-.5-.8L.781,7.122a1.253,1.253,0,0,1-.01-.27.875.875,0,0,1,.266-.536.978.978,0,0,1,.489-.257,1.457,1.457,0,0,1,.292-.021Zm-.9-4.621H6.042V.978h0a.4.4,0,0,1,0-.044A.978.978,0,0,1,6.328.282h0A.978.978,0,0,1,7.014,0h3.2a.978.978,0,0,1,.929.978h0v.456h5.277a.766.766,0,0,1,.7.722c0,.029,0,.052,0,.081V3.844a.422.422,0,0,1-.422.422H.416a.422.422,0,0,1-.422-.417V2.2h0a.254.254,0,0,1,0-.051h0a.769.769,0,0,1,.632-.707,1.7,1.7,0,0,1,.288-.013ZM7.774,10.02a.777.777,0,0,1,1.546,0v6.029a.777.777,0,0,1-1.546,0Zm3.866-.033a.746.746,0,0,1,.815-.662.728.728,0,0,1,.735.727l-.326,6.029a.745.745,0,0,1-.815.662.728.728,0,0,1-.735-.727Zm-7.573.065A.727.727,0,0,1,4.8,9.326a.746.746,0,0,1,.815.662l.326,6.029a.728.728,0,0,1-.735.727.745.745,0,0,1-.815-.662l-.326-6.029Z" transform="translate(0.008)" fill="#8b91aa" fill-rule="evenodd"/>
</svg>
