<svg xmlns="http://www.w3.org/2000/svg" width="19.076" height="19.909" viewBox="0 0 19.076 19.909">
  <g id="edit-pen-icon_1_" data-name="edit-pen-icon (1)" transform="translate(0.013 -0.001)">
    <path id="Path_186" data-name="Path 186" d="M15.319.325A1.087,1.087,0,0,0,14.505,0a1.056,1.056,0,0,0-.8.356l-1.8,1.865,5.034,4.865,1.813-1.9a1.11,1.11,0,0,0,.3-.813,1.078,1.078,0,0,0-.339-.8L15.319.325ZM6.7,17.755c-.661.22-1.338.424-2,.645s-1.322.441-2,.661c-1.576.509-2.442.8-2.628.847S0,19.231.4,17.7l1.254-4.8.1-.107L6.7,17.751l0,0ZM3.585,10.9l6.965-7.262,5.034,4.848L8.535,15.846,3.585,10.9Z" transform="translate(0 0)" fill="#8b91aa" fill-rule="evenodd"/>
  </g>
</svg>
