<svg xmlns="http://www.w3.org/2000/svg" xmlns:xlink="http://www.w3.org/1999/xlink" width="393.672" height="451.108" viewBox="0 0 393.672 451.108">
  <defs>
    <radialGradient id="radial-gradient" cx="0.5" cy="0.5" r="0.5" gradientUnits="objectBoundingBox">
      <stop offset="0" stop-color="#000f27"/>
      <stop offset="1" stop-color="#001b47" stop-opacity="0"/>
    </radialGradient>
  </defs>
  <g id="illustration_06" data-name="illustration 06" transform="translate(-109.684 -169.588)">
    <path id="Path_251" data-name="Path 251" d="M319.076,225.8c15.862-3.016,31.925-5.5,48.069-5.226S399.617,224,413.812,231.7c16.327,8.852,29.387,23.121,40.631,37.9a122.53,122.53,0,0,1,24.39,82.759c-2.532,32.765-18.391,63.365-39.23,88.775s-46.613,49.284-72.478,69.557a67.217,67.217,0,0,1-54.775,12.628c-18.919-4.064-40.168-15.5-43.663-34.529a71.308,71.308,0,0,0-33.117-47.681c-13.258-7.915-30.732-10.893-44.751-17.365-25.755-11.891-42.156-39.479-45.148-67.689s5.985-56.684,20.309-81.17c14.672-25.083,36.689-45.612,64.469-54.14S293.025,212.926,319.076,225.8Z" fill="#d8dbff" opacity="0.78"/>
    <g id="Group_204" data-name="Group 204">
      <path id="Path_252" data-name="Path 252" d="M441.069,288.206l-5.732,9.928H446.8Z" fill="none" stroke="#2c00aa" stroke-linecap="round" stroke-linejoin="round" stroke-width="1"/>
      <path id="Path_253" data-name="Path 253" d="M154.991,382.645l-9.927-5.731v11.463Z" fill="#9d7bff"/>
      <path id="Path_254" data-name="Path 254" d="M465.779,464.276l5.732-9.928H460.048Z" fill="#9d7bff"/>
      <path id="Path_255" data-name="Path 255" d="M456.717,321.941a1.591,1.591,0,1,0-1.591,1.591A1.591,1.591,0,0,0,456.717,321.941Z" fill="#9d7bff"/>
      <path id="Path_256" data-name="Path 256" d="M437.165,466.566a1.592,1.592,0,1,0-1.592,1.591A1.591,1.591,0,0,0,437.165,466.566Z" fill="none" stroke="#2c00aa" stroke-linecap="round" stroke-linejoin="round" stroke-width="1"/>
      <path id="Path_257" data-name="Path 257" d="M259.889,398.442a1.592,1.592,0,1,0-1.592,1.591A1.591,1.591,0,0,0,259.889,398.442Z" fill="#9d7bff"/>
      <path id="Path_258" data-name="Path 258" d="M201.974,449.29a1.591,1.591,0,1,0-1.592,1.591A1.591,1.591,0,0,0,201.974,449.29Z" fill="#9d7bff"/>
      <path id="Path_259" data-name="Path 259" d="M420.245,493.044a1.592,1.592,0,1,0-1.591,1.591A1.591,1.591,0,0,0,420.245,493.044Z" fill="#9d7bff"/>
      <path id="Path_260" data-name="Path 260" d="M481.673,293.672a1.592,1.592,0,1,0-1.592,1.591A1.591,1.591,0,0,0,481.673,293.672Z" fill="#9d7bff"/>
      <path id="Path_261" data-name="Path 261" d="M421.837,413.937a1.591,1.591,0,1,0-1.591,1.591A1.591,1.591,0,0,0,421.837,413.937Z" fill="#9d7bff"/>
      <path id="Path_262" data-name="Path 262" d="M242.845,347.61a1.591,1.591,0,1,0-1.592,1.591A1.591,1.591,0,0,0,242.845,347.61Z" fill="none" stroke="#2c00aa" stroke-linecap="round" stroke-linejoin="round" stroke-width="1"/>
      <path id="Path_263" data-name="Path 263" d="M113.366,331.9a1.591,1.591,0,1,0-1.591,1.592A1.591,1.591,0,0,0,113.366,331.9Z" fill="none" stroke="#2c00aa" stroke-linecap="round" stroke-linejoin="round" stroke-width="1"/>
      <path id="Path_264" data-name="Path 264" d="M245.5,410.137a1.591,1.591,0,1,0-1.591,1.592A1.591,1.591,0,0,0,245.5,410.137Z" fill="#9d7bff"/>
      <path id="Path_265" data-name="Path 265" d="M214.446,459.312a1.591,1.591,0,1,0-1.592,1.591A1.591,1.591,0,0,0,214.446,459.312Z" fill="#9d7bff"/>
    </g>
    <g id="Group_215" data-name="Group 215">
      <g id="Group_206" data-name="Group 206">
        <rect id="Rectangle_183" data-name="Rectangle 183" width="214.255" height="140.608" transform="translate(145.391 169.588)" fill="#fff"/>
        <g id="Group_205" data-name="Group 205">
          <rect id="Rectangle_184" data-name="Rectangle 184" width="214.255" height="19.774" transform="translate(145.391 169.588)" fill="#9e97ff"/>
          <circle id="Ellipse_34" data-name="Ellipse 34" cx="2.949" cy="2.949" r="2.949" transform="translate(153.345 176.526)" fill="#814eff"/>
          <circle id="Ellipse_35" data-name="Ellipse 35" cx="2.949" cy="2.949" r="2.949" transform="translate(165.8 176.526)" fill="#814eff"/>
          <path id="Path_266" data-name="Path 266" d="M184.153,179.475a2.949,2.949,0,1,0-2.949,2.949A2.949,2.949,0,0,0,184.153,179.475Z" fill="#814eff"/>
          <line id="Line_24" data-name="Line 24" x1="163.315" transform="translate(190.792 176.914)" fill="none" stroke="#060305" stroke-linecap="round" stroke-linejoin="round" stroke-width="1"/>
          <line id="Line_25" data-name="Line 25" x1="163.315" transform="translate(190.792 182.035)" fill="none" stroke="#060305" stroke-linecap="round" stroke-linejoin="round" stroke-width="1"/>
        </g>
      </g>
      <g id="Group_209" data-name="Group 209">
        <g id="Group_207" data-name="Group 207">
          <path id="Path_267" data-name="Path 267" d="M208.842,351.807,178.727,368.57l-30.115-16.763a48.121,48.121,0,0,1-24.717-42.046V238.41l54.832-20.684,54.832,20.684v71.351A48.122,48.122,0,0,1,208.842,351.807Z" fill="#9e97ff"/>
          <path id="Path_268" data-name="Path 268" d="M203.815,342.017l-25.089,13.965-25.089-13.965a40.092,40.092,0,0,1-20.592-35.029V245.424l45.681-17.232,45.681,17.232v61.564A40.087,40.087,0,0,1,203.815,342.017Z" fill="#814eff"/>
          <path id="Path_269" data-name="Path 269" d="M208.824,347.176a37.932,37.932,0,0,0,21.187-33.47" fill="none" stroke="#060305" stroke-linecap="round" stroke-linejoin="round" stroke-width="1"/>
          <path id="Path_270" data-name="Path 270" d="M128.432,240.314l41.7-16.448" fill="none" stroke="#fff" stroke-linecap="round" stroke-linejoin="round" stroke-width="1"/>
          <line id="Line_26" data-name="Line 26" y2="150.844" transform="translate(178.726 217.726)" fill="none" stroke="#060305" stroke-linecap="round" stroke-linejoin="round" stroke-width="1"/>
        </g>
        <g id="Group_208" data-name="Group 208">
          <circle id="Ellipse_36" data-name="Ellipse 36" cx="37.009" cy="37.009" r="37.009" transform="translate(134.105 268.351) rotate(-13.486)" fill="#fff"/>
          <path id="Path_271" data-name="Path 271" d="M177.725,323.329l-29.058-34.354,10.1-8.542,17.527,20.726,26.332-40.778,11.113,7.173Z" fill="#ff99a8"/>
        </g>
      </g>
      <g id="Group_214" data-name="Group 214">
        <g id="Group_211" data-name="Group 211">
          <path id="Path_272" data-name="Path 272" d="M430.76,210.853H314.99V236.6h91.978l4.66,8.07,4.659-8.07H430.76Z" fill="#814eff"/>
          <path id="Path_273" data-name="Path 273" d="M330.051,230.233l-6.417-7.586,2.231-1.886,3.87,4.577,5.815-9.005L338,217.917Z" fill="#fff"/>
          <g id="Group_210" data-name="Group 210">
            <line id="Line_27" data-name="Line 27" x1="78.439" transform="translate(345.18 218.606)" fill="none" stroke="#060305" stroke-linecap="round" stroke-linejoin="round" stroke-width="1"/>
            <line id="Line_28" data-name="Line 28" x1="78.439" transform="translate(345.18 223.726)" fill="none" stroke="#060305" stroke-linecap="round" stroke-linejoin="round" stroke-width="1"/>
            <line id="Line_29" data-name="Line 29" x1="78.439" transform="translate(345.18 228.847)" fill="none" stroke="#060305" stroke-linecap="round" stroke-linejoin="round" stroke-width="1"/>
          </g>
        </g>
        <g id="Group_213" data-name="Group 213">
          <path id="Path_274" data-name="Path 274" d="M375.119,253.821h115.77v25.747H398.911l-4.66,8.07-4.659-8.07H375.119Z" fill="#fff"/>
          <path id="Path_275" data-name="Path 275" d="M473.328,273.2l-6.416-7.586,2.23-1.886,3.871,4.576,5.815-9,2.453,1.584Z" fill="#814eff"/>
          <g id="Group_212" data-name="Group 212">
            <line id="Line_30" data-name="Line 30" x1="78.44" transform="translate(381.025 261.555)" fill="none" stroke="#060305" stroke-linecap="round" stroke-linejoin="round" stroke-width="1"/>
            <line id="Line_31" data-name="Line 31" x1="78.44" transform="translate(381.025 266.676)" fill="none" stroke="#060305" stroke-linecap="round" stroke-linejoin="round" stroke-width="1"/>
            <line id="Line_32" data-name="Line 32" x1="78.44" transform="translate(381.025 271.797)" fill="none" stroke="#060305" stroke-linecap="round" stroke-linejoin="round" stroke-width="1"/>
          </g>
        </g>
      </g>
    </g>
    <g id="Group_231" data-name="Group 231">
      <ellipse id="Ellipse_37" data-name="Ellipse 37" cx="196.715" cy="7.461" rx="196.715" ry="7.461" transform="translate(109.926 605.774)" fill="url(#radial-gradient)"/>
      <g id="Group_216" data-name="Group 216">
        <path id="Path_276" data-name="Path 276" d="M397.807,605.831c-6.01-6.26-6.011-16.172-2.271-24-16.893.4-32.693,1.59-49.586,1.986q.436,13.862.874,27.722l58.54,1.7C405.364,609.236,399.942,608.056,397.807,605.831Z" fill="#060305"/>
        <path id="Path_277" data-name="Path 277" d="M374.33,591.649l12.736-.357" fill="none" stroke="#fff" stroke-linecap="round" stroke-linejoin="round" stroke-width="1"/>
        <path id="Path_278" data-name="Path 278" d="M375.076,595.165l13.73.044" fill="none" stroke="#fff" stroke-linecap="round" stroke-linejoin="round" stroke-width="1"/>
        <path id="Path_279" data-name="Path 279" d="M376.323,599.2l13.232.141" fill="none" stroke="#fff" stroke-linecap="round" stroke-linejoin="round" stroke-width="1"/>
      </g>
      <g id="Group_217" data-name="Group 217">
        <path id="Path_280" data-name="Path 280" d="M278.2,605.033c-4.947-3.127-7.172-9.525-8.394-15.248-1-4.674-.493-10.506,1.824-14.686-16.273-4.058-32.126-7.65-48.4-11.708l-4.641,32.29c8.418,5.229,16.857,10.739,25.275,15.968l41.255.148C285.83,607.6,280.966,606.783,278.2,605.033Z" fill="#060305"/>
        <path id="Path_281" data-name="Path 281" d="M250.006,585.3l12.726-.261" fill="none" stroke="#fff" stroke-linecap="round" stroke-linejoin="round" stroke-width="1"/>
        <path id="Path_282" data-name="Path 282" d="M249.256,589.1l14.732.34" fill="none" stroke="#fff" stroke-linecap="round" stroke-linejoin="round" stroke-width="1"/>
        <path id="Path_283" data-name="Path 283" d="M250.753,593.137l15.729.437" fill="none" stroke="#fff" stroke-linecap="round" stroke-linejoin="round" stroke-width="1"/>
      </g>
      <g id="Group_218" data-name="Group 218">
        <path id="Path_284" data-name="Path 284" d="M392.472,374.733l-101.088,7.706L265.161,470.06c-15.72,25.7-36.211,60.785-45.519,95.276,18.764,5.861,37.487,11.218,56.251,17.079,12.227-25.716,24.945-51.376,37.172-77.091,8.633-18.156,17.247-35.77,25.738-53.992,2.153,15.241,3.286,30.691,5.439,45.932-.781,31.568-1.679,59.225-2.733,89.056,19.22.3,39.057-.742,58.277-.439.134-31.082.141-62.1.276-93.185C400.232,453.43,394.907,413.922,392.472,374.733Z" fill="#814eff"/>
        <path id="Path_285" data-name="Path 285" d="M338.645,451.924l5.955-16.65" fill="none" stroke="#060305" stroke-linecap="round" stroke-linejoin="round" stroke-width="1"/>
        <path id="Path_286" data-name="Path 286" d="M295.553,396.4q-10.666,36.717-21.334,73.434c1.145-.182,1.222,1.4,1.269,2.559a3.718,3.718,0,0,1-1.6,2.939,6.017,6.017,0,0,1-4.455,1.187c-15.964,24.912-29.778,50.784-40.079,78.521" fill="none" stroke="#060305" stroke-linecap="round" stroke-linejoin="round" stroke-width="1"/>
        <path id="Path_287" data-name="Path 287" d="M223.934,553.94,279.9,572.535" fill="none" stroke="#060305" stroke-linecap="round" stroke-linejoin="round" stroke-width="1"/>
        <path id="Path_288" data-name="Path 288" d="M343.379,575.043l55.155-1.742" fill="none" stroke="#060305" stroke-linecap="round" stroke-linejoin="round" stroke-width="1"/>
        <path id="Path_289" data-name="Path 289" d="M342.048,442.871q4.379,25.168,8.758,50.337c-1.383,2.4-1.685,6.051.334,7.948-.993,24.465-2.194,48.7-3.187,73.169" fill="none" stroke="#060305" stroke-linecap="round" stroke-linejoin="round" stroke-width="1"/>
      </g>
      <path id="Path_290" data-name="Path 290" d="M424.118,317.118c9.375,6.324,18.235,25.227,14.367,37.369s-13.6,16.761-22.466,18.883-30.082-6.517-30.082-6.517l-7.282-25.936,23.672-22.335Z" fill="#c14f4f"/>
      <g id="Group_219" data-name="Group 219">
        <path id="Path_291" data-name="Path 291" d="M409.033,327.572c-5.209-5.547-8.682-12.389-14.25-17.575-10.308-9.6-24.594-13.485-38.68-13.669-6.949-.091-13.778-.416-20.727-.507a5.218,5.218,0,0,1-3.026,3.92,6.023,6.023,0,0,1-5.005-.133,7.2,7.2,0,0,1-3.381-3.786l-18.343,7.129c-14.032,5.454-26.553,15.044-33.84,28.218,8.048,3.2,15.669,6.972,23.717,10.172-1.467,13.974-3.084,28.041-4.551,42.015l100.435,3a226.949,226.949,0,0,0-7.246-44.406C392.425,337.1,400.742,332.422,409.033,327.572Z" fill="#fff"/>
        <path id="Path_292" data-name="Path 292" d="M315.995,299.7a16.064,16.064,0,0,0,29.155-2.914" fill="none" stroke="#060305" stroke-linecap="round" stroke-linejoin="round" stroke-width="1"/>
        <path id="Path_293" data-name="Path 293" d="M301.544,305.627c3-1.824,7.11-1.136,9.823,1.1a13.858,13.858,0,0,1,4.546,9.224,34.679,34.679,0,0,1-.828,10.468,146.057,146.057,0,0,1-4.26,16.6" fill="none" stroke="#060305" stroke-linecap="round" stroke-linejoin="round" stroke-width="1"/>
        <path id="Path_294" data-name="Path 294" d="M364.29,297.328c2.75,8.858,7.036,17.148,11.3,25.384q4.779,9.232,9.559,18.464" fill="none" stroke="#060305" stroke-linecap="round" stroke-linejoin="round" stroke-width="1"/>
      </g>
      <g id="Group_220" data-name="Group 220">
        <path id="Path_295" data-name="Path 295" d="M329.626,419.579s16.43,8.338,29.162,10.772l18.355-7.6,4.174-6.44-37.856-13.834-19.686,7.662Z" fill="#c14f4f"/>
        <path id="Path_296" data-name="Path 296" d="M360.3,424.638l16.7-5.422" fill="none" stroke="#060305" stroke-linecap="round" stroke-linejoin="round" stroke-width="1"/>
      </g>
      <g id="Group_223" data-name="Group 223">
        <g id="Group_221" data-name="Group 221">
          <path id="Path_297" data-name="Path 297" d="M410.9,352.635l-10.872-.908a27.333,27.333,0,1,0-51.876,9.437l-9.865,4.667a38.243,38.243,0,1,1,72.613-13.2Z" fill="#f6921e"/>
          <path id="Path_298" data-name="Path 298" d="M339.921,335.565a31.918,31.918,0,0,1,22.172-20.249" fill="none" stroke="#fff" stroke-linecap="round" stroke-linejoin="round" stroke-width="1"/>
        </g>
        <g id="Group_222" data-name="Group 222">
          <path id="Path_299" data-name="Path 299" d="M329.785,362.027c-.326,3.95,1.1,15.152,1.845,19.237a46.21,46.21,0,0,0,90.929-16.532c-.743-4.085-3.349-15.073-5.044-18.655Z" fill="#ffcf8f"/>
          <path id="Path_300" data-name="Path 300" d="M386.324,372.162A9.229,9.229,0,1,0,376.1,382.928l.12,19.851,12.174-2.213-6.875-18.623A9.2,9.2,0,0,0,386.324,372.162Z" fill="#060305"/>
          <path id="Path_301" data-name="Path 301" d="M366.182,373.987a10.519,10.519,0,0,1,7.763-11.009" fill="none" stroke="#060305" stroke-linecap="round" stroke-linejoin="round" stroke-width="1"/>
          <path id="Path_302" data-name="Path 302" d="M400.262,408.9a44.069,44.069,0,0,0,19.306-35.036" fill="none" stroke="#060305" stroke-linecap="round" stroke-linejoin="round" stroke-width="1"/>
        </g>
      </g>
      <g id="Group_228" data-name="Group 228">
        <g id="Group_224" data-name="Group 224">
          <path id="Path_303" data-name="Path 303" d="M319.034,273.4l1.733.414" fill="none" stroke="#060305" stroke-linecap="round" stroke-linejoin="round" stroke-width="1"/>
          <path id="Path_304" data-name="Path 304" d="M330.39,268.883a12.085,12.085,0,0,0-10.932,17.506l19.667-4.874c.527-2.239.993-4.484,1.52-6.724A12.318,12.318,0,0,0,330.39,268.883Z" fill="#060305"/>
        </g>
        <g id="Group_227" data-name="Group 227">
          <path id="Path_305" data-name="Path 305" d="M341.63,297.22c-1.57,0-3.206.121-4.776.124-.009-1.236.051-2.572.042-3.808a8,8,0,0,0,5.047-3.824,7.455,7.455,0,0,0,.7-6.2c-.969-2.605-1.851-5.413-2.82-8.017a6.153,6.153,0,0,1-5.279,2.04,8.6,8.6,0,0,1-9.449,1.467c-.086,1.537.057,2.731-.029,4.268a4.744,4.744,0,1,0-1.683,9.054c-.273,1.769-.754,3.56-1.027,5.329-1.211.478-2.668.993-3.879,1.471a13.529,13.529,0,0,0,11.941,5.965A14.208,14.208,0,0,0,341.63,297.22Z" fill="#c14f4f"/>
          <g id="Group_225" data-name="Group 225">
            <circle id="Ellipse_38" data-name="Ellipse 38" cx="1" cy="1" r="1" transform="translate(330.41 283.104)" fill="#060305"/>
            <circle id="Ellipse_39" data-name="Ellipse 39" cx="1" cy="1" r="1" transform="translate(338.658 280.347)" fill="#060305"/>
            <path id="Path_306" data-name="Path 306" d="M336.253,281.882l1.365,3.06c-.356.044-.875.171-1.231.215" fill="none" stroke="#060305" stroke-linecap="round" stroke-linejoin="round" stroke-width="1"/>
            <path id="Path_307" data-name="Path 307" d="M334.9,286.847a1.172,1.172,0,0,0,1.986.482" fill="none" stroke="#060305" stroke-linecap="round" stroke-linejoin="round" stroke-width="1"/>
            <path id="Path_308" data-name="Path 308" d="M329.273,281.334a2.725,2.725,0,0,1,3.512-1.473" fill="none" stroke="#060305" stroke-linecap="round" stroke-linejoin="round" stroke-width="1"/>
            <path id="Path_309" data-name="Path 309" d="M337.653,278.335l1.67-.468" fill="none" stroke="#060305" stroke-linecap="round" stroke-linejoin="round" stroke-width="1"/>
          </g>
          <g id="Group_226" data-name="Group 226">
            <path id="Path_310" data-name="Path 310" d="M321.626,286.315l2.536.076" fill="none" stroke="#060305" stroke-linecap="round" stroke-linejoin="round" stroke-width="1"/>
            <path id="Path_311" data-name="Path 311" d="M330.034,293.6a13.862,13.862,0,0,0,7.626-.009" fill="none" stroke="#060305" stroke-linecap="round" stroke-linejoin="round" stroke-width="1"/>
            <path id="Path_312" data-name="Path 312" d="M323.151,292.41l1.8-.671" fill="none" stroke="#060305" stroke-linecap="round" stroke-linejoin="round" stroke-width="1"/>
          </g>
        </g>
      </g>
      <g id="Group_229" data-name="Group 229">
        <path id="Path_313" data-name="Path 313" d="M424.118,317.118c-5.312-3.156-10.413-7.209-16.555-7.885a233.268,233.268,0,0,0-27-1.393,1.154,1.154,0,0,0-.337,1.4c-.876.016-1.834.163-2.71.179a2.085,2.085,0,0,0,.582,2.245,6.677,6.677,0,0,0,2.237,1.23l9.932,3.9c-2.438.412-4.876.472-7.314.884-.183.617.294,1.21.811,1.593a4.749,4.749,0,0,0,1.791.684l15.573,3.634c2.487,2.665,4.927,5.246,7.415,7.911,2.612,2.8,6.09,4.986,9.882,4.464a10.244,10.244,0,0,0,8.234-7.086C427.781,325.065,427.54,319.152,424.118,317.118Z" fill="#c14f4f"/>
        <path id="Path_314" data-name="Path 314" d="M389.557,316.537l11.608.072" fill="none" stroke="#060305" stroke-linecap="round" stroke-linejoin="round" stroke-width="1"/>
        <path id="Path_315" data-name="Path 315" d="M379.981,308.891l27.184,3.1" fill="none" stroke="#060305" stroke-linecap="round" stroke-linejoin="round" stroke-width="1"/>
        <path id="Path_316" data-name="Path 316" d="M406.394,329.034a15.464,15.464,0,0,0,15.537,6.762" fill="none" stroke="#060305" stroke-linecap="round" stroke-linejoin="round" stroke-width="1"/>
      </g>
      <g id="Group_230" data-name="Group 230">
        <path id="Path_317" data-name="Path 317" d="M343.057,394.869c-3.431-.1-6.031-.454-9.463-.553-10.871-10.536-21.682-21.171-32.553-31.706l6.88-20.361L275.261,331.9c-2.615,8.012-5.95,16.314-8.165,24.446-2.861,10.5-1.172,25.7,13.494,36.22,15.986,11.472,32.027,19.15,49.035,27.009l2.159-5.109c10.37-2.773,20.393-7.732,31.12-8.12a4.071,4.071,0,0,0,3.9-3.966C358.845,399.912,351.386,395.11,343.057,394.869Z" fill="#c14f4f"/>
        <path id="Path_318" data-name="Path 318" d="M348.491,409.2l-4.359.8" fill="none" stroke="#060305" stroke-linecap="round" stroke-linejoin="round" stroke-width="1"/>
        <path id="Path_319" data-name="Path 319" d="M301.181,362.376l-4.369.871" fill="none" stroke="#060305" stroke-linecap="round" stroke-linejoin="round" stroke-width="1"/>
      </g>
    </g>
    <g id="Group_232" data-name="Group 232">
      <path id="Path_320" data-name="Path 320" d="M199.735,411.728h0a3.32,3.32,0,0,1-6.32,0h0a3.32,3.32,0,0,0-6.32,0h0a3.32,3.32,0,0,1-6.32,0h0a3.32,3.32,0,0,0-6.32,0h0a3.32,3.32,0,0,1-6.32,0h0a3.32,3.32,0,0,0-6.32,0h0a3.32,3.32,0,0,1-6.32,0h0a3.32,3.32,0,0,0-6.32,0h0a3.32,3.32,0,0,1-6.32,0h0a3.32,3.32,0,0,0-6.32,0" fill="none" stroke="#eed5fc" stroke-linecap="round" stroke-linejoin="round" stroke-width="1"/>
      <path id="Path_321" data-name="Path 321" d="M501.139,388.941h0a3.32,3.32,0,0,1-6.32,0h0a3.32,3.32,0,0,0-6.32,0h0a3.32,3.32,0,0,1-6.32,0h0a3.32,3.32,0,0,0-6.32,0h0a3.32,3.32,0,0,1-6.32,0h0a3.32,3.32,0,0,0-6.32,0h0a3.32,3.32,0,0,1-6.32,0h0a3.32,3.32,0,0,0-6.32,0h0a3.32,3.32,0,0,1-6.32,0h0a3.32,3.32,0,0,0-6.32,0" fill="none" stroke="#eed5fc" stroke-linecap="round" stroke-linejoin="round" stroke-width="1"/>
      <path id="Path_322" data-name="Path 322" d="M319.641,251.849h0a3.32,3.32,0,0,1-6.32,0h0a3.32,3.32,0,0,0-6.32,0h0a3.32,3.32,0,0,1-6.32,0h0a3.32,3.32,0,0,0-6.32,0h0a3.32,3.32,0,0,1-6.32,0h0a3.32,3.32,0,0,0-6.32,0h0a3.32,3.32,0,0,1-6.32,0h0a3.32,3.32,0,0,0-6.32,0h0a3.32,3.32,0,0,1-6.32,0h0a3.32,3.32,0,0,0-6.32,0" fill="none" stroke="#eed5fc" stroke-linecap="round" stroke-linejoin="round" stroke-width="1"/>
    </g>
  </g>
</svg>
