<svg xmlns="http://www.w3.org/2000/svg" width="29.697" height="31.43" viewBox="0 0 29.697 31.43">
  <g id="notification-alert-icon" transform="translate(-0.001 0.004)">
    <path id="Path_4" data-name="Path 4" d="M19.138,27.887a4.342,4.342,0,0,1-.5,1.368,4.4,4.4,0,0,1-.972,1.151,4.3,4.3,0,0,1-1.31.765,4.549,4.549,0,0,1-3.008,0,4.236,4.236,0,0,1-1.307-.765,4.4,4.4,0,0,1-.972-1.151,4.285,4.285,0,0,1-.509-1.414.463.463,0,0,1,.373-.537l.082-.008h7.678a.466.466,0,0,1,.466.466.674.674,0,0,1-.02.125ZM5.17.061a.912.912,0,0,1,.673,1.7A6.917,6.917,0,0,0,3.3,3.448,6.876,6.876,0,0,0,1.786,6.156.913.913,0,1,1,.042,5.619,8.667,8.667,0,0,1,1.965,2.2,8.73,8.73,0,0,1,5.17.061Zm18.687,1.7a.912.912,0,0,1,.673-1.7,8.7,8.7,0,0,1,3.2,2.143,8.672,8.672,0,0,1,1.923,3.417.913.913,0,1,1-1.744.537A6.84,6.84,0,0,0,26.4,3.45a6.891,6.891,0,0,0-2.54-1.693ZM18.393,3.051a10.274,10.274,0,0,1,1.5.744c.018.013.038.023.056.036a10.19,10.19,0,0,1,1.284.934,9.759,9.759,0,0,1,2.1,2.535,10.562,10.562,0,0,1,.711,1.5h0a9.393,9.393,0,0,1,.455,1.639,9.88,9.88,0,0,1,.151,1.729v1.875q0,.9.01,1.755V15.8h0a13.259,13.259,0,0,0,.1,1.555,12.361,12.361,0,0,0,.276,1.489h0a7.825,7.825,0,0,0,.486,1.361,8.81,8.81,0,0,0,.765,1.315h0A7.925,7.925,0,0,0,27.4,22.766a13.029,13.029,0,0,0,1.6,1.243.761.761,0,0,1-.425,1.391v0H1.119a.762.762,0,0,1-.394-1.414,13.386,13.386,0,0,0,1.588-1.24,7.6,7.6,0,0,0,1.1-1.253.193.193,0,0,1,.028-.036,9,9,0,0,0,.734-1.281,8.009,8.009,0,0,0,.5-1.366c0-.01.005-.02.008-.028a11.144,11.144,0,0,0,.269-1.44,13.049,13.049,0,0,0,.095-1.57V12.167A9.624,9.624,0,0,1,5.2,10.435a9.154,9.154,0,0,1,.458-1.647A10.332,10.332,0,0,1,6.38,7.279,9.677,9.677,0,0,1,8.5,4.737a9.943,9.943,0,0,1,1.35-.969,9.442,9.442,0,0,1,2.64-1.084A2.286,2.286,0,0,1,13.16,1.57,2.474,2.474,0,0,1,14.9.992a2.506,2.506,0,0,1,1.721.593c1.537,1.368-.376.616,1.775,1.466Z" transform="translate(0 0)" fill="#dfe2ef"/>
  </g>
</svg>
