<svg xmlns="http://www.w3.org/2000/svg" width="17" height="17" viewBox="0 0 17 17">
  <path id="Path_240" data-name="Path 240" d="M78.79,0a8.5,8.5,0,1,1-8.5,8.5A8.5,8.5,0,0,1,78.79,0Zm1.662,5.417a.967.967,0,0,1,1.38,0,.992.992,0,0,1,0,1.394L80.167,8.5l1.669,1.7a.987.987,0,0,1-.01,1.387.966.966,0,0,1-1.377,0L78.79,9.9l-1.662,1.686a.967.967,0,0,1-1.38,0,.992.992,0,0,1,0-1.394L77.413,8.5,75.741,6.8a.987.987,0,0,1,.01-1.387.966.966,0,0,1,1.377,0L78.787,7.1l1.666-1.686Z" transform="translate(-70.29)" fill="#ff4141" fill-rule="evenodd"/>
</svg>
